<?xml version="1.0" encoding="utf-8"?>
<!-- Generator: Adobe Illustrator 23.0.6, SVG Export Plug-In . SVG Version: 6.00 Build 0)  -->
<svg version="1.1" id="Layer_1" xmlns="http://www.w3.org/2000/svg" xmlns:xlink="http://www.w3.org/1999/xlink" x="0px" y="0px"
	 viewBox="0 0 351.6 298.8" style="enable-background:new 0 0 351.6 298.8;" xml:space="preserve">
<style type="text/css">
	.st0{fill:url(#SVGID_1_);}
	.st1{fill:url(#SVGID_2_);}
	.st2{fill:url(#SVGID_3_);}
	.st3{fill:url(#SVGID_4_);}
	.st4{fill:url(#SVGID_5_);}
	.st5{fill:url(#SVGID_6_);}
	.st6{fill:url(#SVGID_7_);}
	.st7{fill:url(#SVGID_8_);}
	.st8{fill:url(#SVGID_9_);}
	.st9{fill:url(#SVGID_10_);}
	.st10{fill:url(#SVGID_11_);}
	.st11{fill:url(#SVGID_12_);}
	.st12{fill:url(#SVGID_13_);}
	.st13{fill:url(#SVGID_14_);}
	.st14{fill:url(#SVGID_15_);}
	.st15{fill:url(#SVGID_16_);}
	.st16{fill:url(#SVGID_17_);}
	.st17{fill:url(#SVGID_18_);}
	.st18{fill:url(#SVGID_19_);}
	.st19{fill:url(#SVGID_20_);}
	.st20{fill:url(#SVGID_21_);}
	.st21{fill:url(#SVGID_22_);}
	.st22{fill:url(#SVGID_23_);}
	.st23{fill:url(#SVGID_24_);}
</style>
<title>denver-logo</title>
<g>
	<g>
		<linearGradient id="SVGID_1_" gradientUnits="userSpaceOnUse" x1="183.1927" y1="234.9889" x2="178.1927" y2="147.9889">
			<stop  offset="0" style="stop-color:#213666"/>
			<stop  offset="0.3324" style="stop-color:#3754A4"/>
			<stop  offset="1" style="stop-color:#4B9BD4"/>
		</linearGradient>
		<polyline class="st0" points="131.8,86.4 131.8,122.7 69.5,122.7 131.7,48.3 145.9,59.7 175.9,21.4 226.8,78.8 239.3,67.5 
			288.8,122.7 217.5,122.7 217.5,83.9 201.7,83.9 201.7,136.5 320.1,136.5 240.3,45.4 226.8,57 174.7,0 145.2,37.9 131.2,26.6 
			35,136.5 147.3,136.5 147.3,86.4 131.8,86.4 		"/>
		<linearGradient id="SVGID_2_" gradientUnits="userSpaceOnUse" x1="195.1789" y1="234.3001" x2="190.1789" y2="147.3001">
			<stop  offset="0" style="stop-color:#213666"/>
			<stop  offset="0.3324" style="stop-color:#3754A4"/>
			<stop  offset="1" style="stop-color:#4B9BD4"/>
		</linearGradient>
		<rect x="180" y="68" class="st1" width="15.3" height="68.4"/>
		<linearGradient id="SVGID_3_" gradientUnits="userSpaceOnUse" x1="172.012" y1="235.6315" x2="167.012" y2="148.6315">
			<stop  offset="0" style="stop-color:#213666"/>
			<stop  offset="0.3324" style="stop-color:#3754A4"/>
			<stop  offset="1" style="stop-color:#4B9BD4"/>
		</linearGradient>
		<rect x="156.2" y="56.9" class="st2" width="15.6" height="79.6"/>
	</g>
	<g>
		<linearGradient id="SVGID_4_" gradientUnits="userSpaceOnUse" x1="28.0719" y1="239.3984" x2="23.0719" y2="152.3984">
			<stop  offset="0" style="stop-color:#213666"/>
			<stop  offset="0.3324" style="stop-color:#3754A4"/>
			<stop  offset="1" style="stop-color:#4B9BD4"/>
		</linearGradient>
		<path class="st3" d="M0,147.1h22.5c18.5,0,28.8,8,29.6,29.3v26c-0.7,21.3-11,29.3-29.6,29.3H0V147.1 M16.2,217.4h5.6
			c8.9,0,14.1-4.2,14.1-16.9v-22.3c0-12-4-16.9-14.1-16.9h-5.6V217.4L16.2,217.4z"/>
		<linearGradient id="SVGID_5_" gradientUnits="userSpaceOnUse" x1="85.3472" y1="236.1067" x2="80.3477" y2="149.1152">
			<stop  offset="0" style="stop-color:#213666"/>
			<stop  offset="0.3324" style="stop-color:#3754A4"/>
			<stop  offset="1" style="stop-color:#4B9BD4"/>
		</linearGradient>
		<polyline class="st4" points="60.5,231.8 60.5,147.1 104.8,147.1 104.8,161.4 76.7,161.4 76.7,180.9 98.1,180.9 98.1,195.2 
			76.7,195.2 76.7,217.4 106,217.4 106,231.8 60.5,231.8 		"/>
		<linearGradient id="SVGID_6_" gradientUnits="userSpaceOnUse" x1="145.5922" y1="232.6444" x2="140.5922" y2="145.6444">
			<stop  offset="0" style="stop-color:#213666"/>
			<stop  offset="0.3324" style="stop-color:#3754A4"/>
			<stop  offset="1" style="stop-color:#4B9BD4"/>
		</linearGradient>
		<polyline class="st5" points="115.5,231.8 115.5,147.1 133.2,147.1 155.7,197.3 155.9,197.3 155.9,147.1 170.7,147.1 170.7,231.8 
			155.2,231.8 130.5,177.1 130.3,177.1 130.3,231.8 115.5,231.8 		"/>
		<linearGradient id="SVGID_7_" gradientUnits="userSpaceOnUse" x1="211.6474" y1="228.8481" x2="206.6474" y2="141.8481">
			<stop  offset="0" style="stop-color:#213666"/>
			<stop  offset="0.3324" style="stop-color:#3754A4"/>
			<stop  offset="1" style="stop-color:#4B9BD4"/>
		</linearGradient>
		<polyline class="st6" points="176.1,147.1 192.1,147.1 207,207.6 207.2,207.6 222,147.1 237.8,147.1 216.2,231.7 197.8,231.7 
			176.1,147.1 		"/>
		<linearGradient id="SVGID_8_" gradientUnits="userSpaceOnUse" x1="266.4849" y1="225.6965" x2="261.4854" y2="138.7052">
			<stop  offset="0" style="stop-color:#213666"/>
			<stop  offset="0.3324" style="stop-color:#3754A4"/>
			<stop  offset="1" style="stop-color:#4B9BD4"/>
		</linearGradient>
		<polyline class="st7" points="242.2,231.8 242.2,147.1 286.6,147.1 286.6,161.4 258.4,161.4 258.4,180.9 279.9,180.9 279.9,195.2 
			258.4,195.2 258.4,217.4 287.7,217.4 287.7,231.8 242.2,231.8 		"/>
		<linearGradient id="SVGID_9_" gradientUnits="userSpaceOnUse" x1="323.5825" y1="222.4151" x2="318.5825" y2="135.4151">
			<stop  offset="0" style="stop-color:#213666"/>
			<stop  offset="0.3324" style="stop-color:#3754A4"/>
			<stop  offset="1" style="stop-color:#4B9BD4"/>
		</linearGradient>
		<path class="st8" d="M334.3,231.8l-14.1-34.5h-7.7v34.5h-16.2v-84.7h23.4c19.5,0,28.7,9.4,28.7,25.3c0,10.6-3.8,18.2-12.8,21.6
			l15.9,37.8L334.3,231.8 M312.5,183.9h8.3c7.2,0,11.5-3.5,11.5-11.7s-4.3-11.7-11.5-11.7h-8.3L312.5,183.9L312.5,183.9z"/>
	</g>
	<g>
		<linearGradient id="SVGID_10_" gradientUnits="userSpaceOnUse" x1="42.2883" y1="228.0348" x2="37.2883" y2="141.0348">
			<stop  offset="0" style="stop-color:#213666"/>
			<stop  offset="0.3324" style="stop-color:#3754A4"/>
			<stop  offset="1" style="stop-color:#4B9BD4"/>
		</linearGradient>
		<polyline class="st9" points="40.4,247.8 34.9,247.8 34.9,242.8 51.7,242.8 51.7,247.8 46.1,247.8 46.1,276 40.4,276 40.4,247.8 
					"/>
		<linearGradient id="SVGID_11_" gradientUnits="userSpaceOnUse" x1="59.5384" y1="227.0434" x2="54.5384" y2="140.0434">
			<stop  offset="0" style="stop-color:#213666"/>
			<stop  offset="0.3324" style="stop-color:#3754A4"/>
			<stop  offset="1" style="stop-color:#4B9BD4"/>
		</linearGradient>
		<path class="st10" d="M54,276v-33.2h5.2v10.8c1.9-1.7,3-2.8,6-2.8c2.7,0,4.3,2,4.3,5.2v20h-5.2v-19.2c0.1-0.9-0.6-1.7-1.5-1.8
			c-0.1,0-0.3,0-0.4,0c-1.2,0.2-2.4,0.7-3.3,1.6V276H54"/>
		<linearGradient id="SVGID_12_" gradientUnits="userSpaceOnUse" x1="79.338" y1="225.9055" x2="74.338" y2="138.9055">
			<stop  offset="0" style="stop-color:#213666"/>
			<stop  offset="0.3324" style="stop-color:#3754A4"/>
			<stop  offset="1" style="stop-color:#4B9BD4"/>
		</linearGradient>
		<path class="st11" d="M89.5,264.6H78.7v3.6c0,2.9,1,4,2.9,4s2.9-1.2,2.9-4v-0.6h5.2c-0.1,5.2-2.3,8.8-8,8.8c-5.9,0-8-3.8-8-9.2
			V260c0-5.4,2.1-9.2,8-9.2s8,3.8,8,9.2L89.5,264.6 M84.4,260.4v-1.3c0-2.9-1-4-2.9-4s-2.9,1.2-2.9,4v1.3
			C78.7,260.4,84.4,260.4,84.4,260.4z"/>
		<linearGradient id="SVGID_13_" gradientUnits="userSpaceOnUse" x1="112.5431" y1="223.9971" x2="107.5431" y2="136.9971">
			<stop  offset="0" style="stop-color:#213666"/>
			<stop  offset="0.3324" style="stop-color:#3754A4"/>
			<stop  offset="1" style="stop-color:#4B9BD4"/>
		</linearGradient>
		<polyline class="st12" points="126.2,242.8 126.2,276 121.2,276 121.2,250.1 121.1,250.1 116,276 113.2,276 108,250.1 108,250.1 
			108,276 103,276 103,242.8 110.5,242.8 114.5,262.2 114.6,262.2 118.7,242.8 126.2,242.8 		"/>
		<linearGradient id="SVGID_14_" gradientUnits="userSpaceOnUse" x1="130.9737" y1="222.9379" x2="125.9737" y2="135.9379">
			<stop  offset="0" style="stop-color:#213666"/>
			<stop  offset="0.3324" style="stop-color:#3754A4"/>
			<stop  offset="1" style="stop-color:#4B9BD4"/>
		</linearGradient>
		<path class="st13" d="M130.5,242.8h5.2v4.7h-5.2V242.8z M130.5,251.3h5.2V276h-5.2V251.3z"/>
		<linearGradient id="SVGID_15_" gradientUnits="userSpaceOnUse" x1="140.4624" y1="222.3926" x2="135.4624" y2="135.3926">
			<stop  offset="0" style="stop-color:#213666"/>
			<stop  offset="0.3324" style="stop-color:#3754A4"/>
			<stop  offset="1" style="stop-color:#4B9BD4"/>
		</linearGradient>
		<rect x="140" y="242.8" class="st14" width="5.2" height="33.2"/>
		<linearGradient id="SVGID_16_" gradientUnits="userSpaceOnUse" x1="154.8018" y1="221.5685" x2="149.8018" y2="134.5685">
			<stop  offset="0" style="stop-color:#213666"/>
			<stop  offset="0.3324" style="stop-color:#3754A4"/>
			<stop  offset="1" style="stop-color:#4B9BD4"/>
		</linearGradient>
		<path class="st15" d="M165.2,264.6h-10.9v3.6c0,2.9,1,4,2.9,4s2.9-1.2,2.9-4v-0.6h5.2c-0.1,5.2-2.3,8.8-8,8.8c-5.9,0-8-3.8-8-9.2
			V260c0-5.4,2.1-9.2,8-9.2s8,3.8,8,9.2V264.6 M160.1,260.4v-1.3c0-2.9-1-4-2.9-4s-2.9,1.2-2.9,4v1.3H160.1z"/>
		<linearGradient id="SVGID_17_" gradientUnits="userSpaceOnUse" x1="185.4837" y1="219.8052" x2="180.4837" y2="132.8052">
			<stop  offset="0" style="stop-color:#213666"/>
			<stop  offset="0.3324" style="stop-color:#3754A4"/>
			<stop  offset="1" style="stop-color:#4B9BD4"/>
		</linearGradient>
		<polyline class="st16" points="179,276 179,242.8 184.7,242.8 184.7,256.3 190.8,256.3 190.8,242.8 196.5,242.8 196.5,276 
			190.8,276 190.8,261.3 184.7,261.3 184.7,276 179,276 		"/>
		<linearGradient id="SVGID_18_" gradientUnits="userSpaceOnUse" x1="201.3458" y1="218.8935" x2="196.3458" y2="131.8935">
			<stop  offset="0" style="stop-color:#213666"/>
			<stop  offset="0.3324" style="stop-color:#3754A4"/>
			<stop  offset="1" style="stop-color:#4B9BD4"/>
		</linearGradient>
		<path class="st17" d="M201.1,242.8h5.2v4.7h-5.2V242.8z M201.1,251.3h5.2V276h-5.2V251.3z"/>
		<linearGradient id="SVGID_19_" gradientUnits="userSpaceOnUse" x1="215.587" y1="218.0751" x2="210.587" y2="131.0751">
			<stop  offset="0" style="stop-color:#213666"/>
			<stop  offset="0.3324" style="stop-color:#3754A4"/>
			<stop  offset="1" style="stop-color:#4B9BD4"/>
		</linearGradient>
		<path class="st18" d="M227.7,255.1c-0.3,0-0.6-0.1-0.8,0c-0.9,0-1.8,0.2-2.5,0.8c0.3,1.3,0.5,2.6,0.6,3.9c0,7.5-2.6,9.9-7.8,9.9
			h-1.7c-0.6,0.1-1,0.6-1,1.2c0,3.4,13.2-1.6,13.2,7.1c0,4.2-4,5.9-10.6,5.9c-5.2,0-8.2-1.4-8.2-4c0.1-1.9,1.5-3.5,3.4-3.9v-0.1
			c-1.4-0.4-2.3-1.7-2.3-3.1c0-1.7,1.7-3.2,3.1-4c-2.6-1.8-3.3-3.1-3.3-8.9c0-6.8,2.2-9.1,8-9.1c2.2,0,4.3,0.9,5.7,2.7
			c1.4-2,2.1-2.7,4.2-2.7L227.7,255.1 M223.1,278.3c0-1.3-0.9-1.8-4.4-1.8s-4.4,0.6-4.4,1.8s0.9,1.8,4.4,1.8
			S223.1,279.6,223.1,278.3L223.1,278.3z M219.8,260.2c0-4.2-0.6-5.2-2.6-5.2c-1.7,0-2.6,1-2.6,5.2s0.9,5.2,2.6,5.2
			C219.2,265.4,219.8,264.4,219.8,260.2L219.8,260.2z"/>
		<linearGradient id="SVGID_20_" gradientUnits="userSpaceOnUse" x1="235.2236" y1="216.9465" x2="230.2236" y2="129.9465">
			<stop  offset="0" style="stop-color:#213666"/>
			<stop  offset="0.3324" style="stop-color:#3754A4"/>
			<stop  offset="1" style="stop-color:#4B9BD4"/>
		</linearGradient>
		<path class="st19" d="M230.3,276v-33.2h5.2v10.8c1.9-1.7,3-2.8,6-2.8c2.7,0,4.3,2,4.3,5.2v20h-5.2v-19.2c0.1-0.9-0.6-1.7-1.5-1.8
			c-0.1,0-0.3,0-0.4,0c-1.2,0.2-2.4,0.7-3.3,1.6V276H230.3"/>
		<linearGradient id="SVGID_21_" gradientUnits="userSpaceOnUse" x1="265.878" y1="215.1848" x2="260.878" y2="128.1848">
			<stop  offset="0" style="stop-color:#213666"/>
			<stop  offset="0.3324" style="stop-color:#3754A4"/>
			<stop  offset="1" style="stop-color:#4B9BD4"/>
		</linearGradient>
		<path class="st20" d="M271.3,253.9v-2.6c0-2.8-1.3-4-2.8-4c-2.3,0-3,1.2-3,3.7v16.8c0,2.5,0.7,3.7,3,3.7c2.1,0,2.8-1.2,2.8-3.4v-4
			h5.7v3.8c0,4.7-2.8,8.5-8.5,8.5c-6,0-8.7-3.8-8.7-8.5v-17.1c0-4.7,2.8-8.5,8.7-8.5c5.7,0,8.5,4.1,8.5,9.1v2.4L271.3,253.9"/>
		<linearGradient id="SVGID_22_" gradientUnits="userSpaceOnUse" x1="281.8982" y1="214.2641" x2="276.8982" y2="127.2641">
			<stop  offset="0" style="stop-color:#213666"/>
			<stop  offset="0.3324" style="stop-color:#3754A4"/>
			<stop  offset="1" style="stop-color:#4B9BD4"/>
		</linearGradient>
		<path class="st21" d="M281.9,242.8h5.2v4.7h-5.2V242.8z M281.9,251.3h5.2V276h-5.2V251.3z"/>
		<linearGradient id="SVGID_23_" gradientUnits="userSpaceOnUse" x1="292.8091" y1="213.637" x2="287.8091" y2="126.637">
			<stop  offset="0" style="stop-color:#213666"/>
			<stop  offset="0.3324" style="stop-color:#3754A4"/>
			<stop  offset="1" style="stop-color:#4B9BD4"/>
		</linearGradient>
		<path class="st22" d="M289.4,255.5v-4.2h2.9v-6.7h5.2v6.7h3.5v4.2h-3.5v14.3c0,1.3,0.6,2,1.7,2h1.7v4.4c-0.8,0.2-1.7,0.3-2.6,0.3
			c-3.9,0-6-1.8-6-5.6v-15.4H289.4"/>
		<linearGradient id="SVGID_24_" gradientUnits="userSpaceOnUse" x1="307.4527" y1="212.7955" x2="302.4527" y2="125.7954">
			<stop  offset="0" style="stop-color:#213666"/>
			<stop  offset="0.3324" style="stop-color:#3754A4"/>
			<stop  offset="1" style="stop-color:#4B9BD4"/>
		</linearGradient>
		<path class="st23" d="M313.2,251.3h5.2l-6.5,26.6c-1.1,4.5-3.2,5.9-7,5.9h-2.2v-4.2h1.2c2.6,0,3.4-1.4,3.4-4
			c0-1.1-0.2-2.2-0.6-3.3l-5.4-21h5.2l3.3,15.8h0.1L313.2,251.3"/>
	</g>
</g>
</svg>
